<mxfile host="Electron" agent="Mozilla/5.0 (Windows NT 10.0; Win64; x64) AppleWebKit/537.36 (KHTML, like Gecko) draw.io/26.0.9 Chrome/128.0.6613.186 Electron/32.2.5 Safari/537.36" version="26.0.9">
  <diagram name="Page-1" id="13e1069c-82ec-6db2-03f1-153e76fe0fe0">
    <mxGraphModel dx="2868" dy="2472" grid="1" gridSize="10" guides="1" tooltips="1" connect="1" arrows="1" fold="1" page="0" pageScale="1" pageWidth="1100" pageHeight="850" background="none" math="0" shadow="0">
      <root>
        <mxCell id="0" />
        <mxCell id="1" parent="0" />
        <mxCell id="Om1g2NIAJvk-xu2bY28f-11" value="Super Admin" style="shape=umlActor;verticalLabelPosition=bottom;verticalAlign=top;html=1;outlineConnect=0;" vertex="1" parent="1">
          <mxGeometry x="65" y="-310" width="30" height="60" as="geometry" />
        </mxCell>
        <mxCell id="Om1g2NIAJvk-xu2bY28f-34" value="Admin" style="shape=umlActor;verticalLabelPosition=bottom;verticalAlign=top;html=1;outlineConnect=0;" vertex="1" parent="1">
          <mxGeometry x="150" y="-310" width="30" height="60" as="geometry" />
        </mxCell>
        <mxCell id="Om1g2NIAJvk-xu2bY28f-38" value="Driver" style="shape=umlActor;verticalLabelPosition=bottom;verticalAlign=top;html=1;outlineConnect=0;" vertex="1" parent="1">
          <mxGeometry x="230" y="-310" width="30" height="60" as="geometry" />
        </mxCell>
        <mxCell id="Om1g2NIAJvk-xu2bY28f-43" value="Student" style="shape=umlActor;verticalLabelPosition=bottom;verticalAlign=top;html=1;outlineConnect=0;" vertex="1" parent="1">
          <mxGeometry x="310" y="-310" width="30" height="60" as="geometry" />
        </mxCell>
        <mxCell id="Om1g2NIAJvk-xu2bY28f-51" value="" style="group" vertex="1" connectable="0" parent="1">
          <mxGeometry y="-176" width="840" height="30" as="geometry" />
        </mxCell>
        <mxCell id="Om1g2NIAJvk-xu2bY28f-19" value="" style="shape=link;html=1;rounded=0;" edge="1" parent="Om1g2NIAJvk-xu2bY28f-51" source="Om1g2NIAJvk-xu2bY28f-1">
          <mxGeometry width="100" relative="1" as="geometry">
            <mxPoint y="16" as="sourcePoint" />
            <mxPoint x="840" y="16" as="targetPoint" />
          </mxGeometry>
        </mxCell>
        <mxCell id="Om1g2NIAJvk-xu2bY28f-21" value="" style="shape=link;html=1;rounded=0;" edge="1" parent="Om1g2NIAJvk-xu2bY28f-51" target="Om1g2NIAJvk-xu2bY28f-1">
          <mxGeometry width="100" relative="1" as="geometry">
            <mxPoint y="16" as="sourcePoint" />
            <mxPoint x="840" y="16" as="targetPoint" />
          </mxGeometry>
        </mxCell>
        <mxCell id="Om1g2NIAJvk-xu2bY28f-1" value="user sign up" style="rounded=0;whiteSpace=wrap;html=1;" vertex="1" parent="Om1g2NIAJvk-xu2bY28f-51">
          <mxGeometry x="360" width="80" height="30" as="geometry" />
        </mxCell>
        <mxCell id="Om1g2NIAJvk-xu2bY28f-15" value="Admin panel" style="rounded=0;whiteSpace=wrap;html=1;" vertex="1" parent="1">
          <mxGeometry x="435" y="-290" width="90" height="50" as="geometry" />
        </mxCell>
        <mxCell id="Om1g2NIAJvk-xu2bY28f-16" value="Mobile App" style="rounded=0;whiteSpace=wrap;html=1;" vertex="1" parent="1">
          <mxGeometry x="580" y="-290" width="90" height="50" as="geometry" />
        </mxCell>
        <mxCell id="Om1g2NIAJvk-xu2bY28f-17" value="Firebase" style="shape=cylinder3;whiteSpace=wrap;html=1;boundedLbl=1;backgroundOutline=1;size=15;" vertex="1" parent="1">
          <mxGeometry x="730" y="-320" width="60" height="80" as="geometry" />
        </mxCell>
        <mxCell id="Om1g2NIAJvk-xu2bY28f-56" value="" style="group" vertex="1" connectable="0" parent="1">
          <mxGeometry x="80" y="-240" width="680" height="680" as="geometry" />
        </mxCell>
        <mxCell id="Om1g2NIAJvk-xu2bY28f-45" value="" style="group" vertex="1" connectable="0" parent="Om1g2NIAJvk-xu2bY28f-56">
          <mxGeometry y="28.333333333333336" width="245" height="651.6666666666667" as="geometry" />
        </mxCell>
        <mxCell id="Om1g2NIAJvk-xu2bY28f-31" value="" style="endArrow=none;html=1;rounded=0;dashed=1;" edge="1" parent="Om1g2NIAJvk-xu2bY28f-45">
          <mxGeometry width="50" height="50" relative="1" as="geometry">
            <mxPoint y="651.6666666666667" as="sourcePoint" />
            <mxPoint as="targetPoint" />
          </mxGeometry>
        </mxCell>
        <mxCell id="Om1g2NIAJvk-xu2bY28f-35" value="" style="endArrow=none;html=1;rounded=0;dashed=1;" edge="1" parent="Om1g2NIAJvk-xu2bY28f-45">
          <mxGeometry width="50" height="50" relative="1" as="geometry">
            <mxPoint x="85" y="651.6666666666667" as="sourcePoint" />
            <mxPoint x="85" as="targetPoint" />
          </mxGeometry>
        </mxCell>
        <mxCell id="Om1g2NIAJvk-xu2bY28f-39" value="" style="endArrow=none;html=1;rounded=0;dashed=1;" edge="1" parent="Om1g2NIAJvk-xu2bY28f-45">
          <mxGeometry width="50" height="50" relative="1" as="geometry">
            <mxPoint x="165" y="651.6666666666667" as="sourcePoint" />
            <mxPoint x="165" as="targetPoint" />
          </mxGeometry>
        </mxCell>
        <mxCell id="Om1g2NIAJvk-xu2bY28f-44" value="" style="endArrow=none;html=1;rounded=0;dashed=1;" edge="1" parent="Om1g2NIAJvk-xu2bY28f-45">
          <mxGeometry width="50" height="50" relative="1" as="geometry">
            <mxPoint x="245" y="651.6666666666667" as="sourcePoint" />
            <mxPoint x="245" as="targetPoint" />
          </mxGeometry>
        </mxCell>
        <mxCell id="Om1g2NIAJvk-xu2bY28f-47" value="" style="endArrow=none;html=1;rounded=0;dashed=1;" edge="1" parent="Om1g2NIAJvk-xu2bY28f-56">
          <mxGeometry width="50" height="50" relative="1" as="geometry">
            <mxPoint x="400" y="680" as="sourcePoint" />
            <mxPoint x="400" as="targetPoint" />
          </mxGeometry>
        </mxCell>
        <mxCell id="Om1g2NIAJvk-xu2bY28f-48" value="" style="endArrow=none;html=1;rounded=0;dashed=1;" edge="1" parent="Om1g2NIAJvk-xu2bY28f-56">
          <mxGeometry width="50" height="50" relative="1" as="geometry">
            <mxPoint x="545" y="680" as="sourcePoint" />
            <mxPoint x="545" as="targetPoint" />
          </mxGeometry>
        </mxCell>
        <mxCell id="Om1g2NIAJvk-xu2bY28f-49" value="" style="endArrow=none;html=1;rounded=0;dashed=1;" edge="1" parent="Om1g2NIAJvk-xu2bY28f-56">
          <mxGeometry width="50" height="50" relative="1" as="geometry">
            <mxPoint x="680" y="680" as="sourcePoint" />
            <mxPoint x="680" as="targetPoint" />
          </mxGeometry>
        </mxCell>
        <mxCell id="Om1g2NIAJvk-xu2bY28f-57" value="" style="endArrow=classic;html=1;rounded=0;" edge="1" parent="1">
          <mxGeometry width="50" height="50" relative="1" as="geometry">
            <mxPoint x="80" y="-120" as="sourcePoint" />
            <mxPoint x="480" y="-120" as="targetPoint" />
          </mxGeometry>
        </mxCell>
        <mxCell id="Om1g2NIAJvk-xu2bY28f-58" value="Create User" style="edgeLabel;html=1;align=center;verticalAlign=middle;resizable=0;points=[];" vertex="1" connectable="0" parent="Om1g2NIAJvk-xu2bY28f-57">
          <mxGeometry x="-0.0988" y="1" relative="1" as="geometry">
            <mxPoint y="-8" as="offset" />
          </mxGeometry>
        </mxCell>
        <mxCell id="Om1g2NIAJvk-xu2bY28f-63" value="" style="endArrow=classic;html=1;rounded=0;" edge="1" parent="1">
          <mxGeometry width="50" height="50" relative="1" as="geometry">
            <mxPoint x="480" y="-104" as="sourcePoint" />
            <mxPoint x="760" y="-104" as="targetPoint" />
          </mxGeometry>
        </mxCell>
        <mxCell id="Om1g2NIAJvk-xu2bY28f-64" value="Add User" style="edgeLabel;html=1;align=center;verticalAlign=middle;resizable=0;points=[];" vertex="1" connectable="0" parent="Om1g2NIAJvk-xu2bY28f-63">
          <mxGeometry x="-0.0092" y="2" relative="1" as="geometry">
            <mxPoint y="-6" as="offset" />
          </mxGeometry>
        </mxCell>
        <mxCell id="Om1g2NIAJvk-xu2bY28f-65" value="" style="endArrow=classic;html=1;rounded=0;" edge="1" parent="1">
          <mxGeometry width="50" height="50" relative="1" as="geometry">
            <mxPoint x="760" y="-440" as="sourcePoint" />
            <mxPoint x="1160" y="-440" as="targetPoint" />
          </mxGeometry>
        </mxCell>
        <mxCell id="Om1g2NIAJvk-xu2bY28f-66" value="Create User" style="edgeLabel;html=1;align=center;verticalAlign=middle;resizable=0;points=[];" vertex="1" connectable="0" parent="Om1g2NIAJvk-xu2bY28f-65">
          <mxGeometry x="-0.0988" y="1" relative="1" as="geometry">
            <mxPoint y="-7" as="offset" />
          </mxGeometry>
        </mxCell>
        <mxCell id="Om1g2NIAJvk-xu2bY28f-70" value="" style="endArrow=classic;html=1;rounded=0;edgeStyle=elbowEdgeStyle;" edge="1" parent="1">
          <mxGeometry width="50" height="50" relative="1" as="geometry">
            <mxPoint x="1130" y="-590" as="sourcePoint" />
            <mxPoint x="690" y="-540" as="targetPoint" />
            <Array as="points">
              <mxPoint x="1230" y="-550" />
            </Array>
          </mxGeometry>
        </mxCell>
        <mxCell id="Om1g2NIAJvk-xu2bY28f-71" value="Send Email" style="edgeLabel;html=1;align=center;verticalAlign=middle;resizable=0;points=[];" vertex="1" connectable="0" parent="Om1g2NIAJvk-xu2bY28f-70">
          <mxGeometry x="0.2578" y="1" relative="1" as="geometry">
            <mxPoint y="-10" as="offset" />
          </mxGeometry>
        </mxCell>
        <mxCell id="Om1g2NIAJvk-xu2bY28f-78" value="" style="group" vertex="1" connectable="0" parent="1">
          <mxGeometry x="1260" y="-600" width="350" height="130" as="geometry" />
        </mxCell>
        <mxCell id="Om1g2NIAJvk-xu2bY28f-74" value="Alternative" style="shape=umlFrame;whiteSpace=wrap;html=1;pointerEvents=0;width=70;height=30;" vertex="1" parent="Om1g2NIAJvk-xu2bY28f-78">
          <mxGeometry width="350" height="130" as="geometry" />
        </mxCell>
        <mxCell id="Om1g2NIAJvk-xu2bY28f-77" value="" style="endArrow=none;html=1;rounded=0;exitX=0;exitY=0.538;exitDx=0;exitDy=0;exitPerimeter=0;dashed=1;" edge="1" parent="Om1g2NIAJvk-xu2bY28f-78" source="Om1g2NIAJvk-xu2bY28f-74">
          <mxGeometry width="50" height="50" relative="1" as="geometry">
            <mxPoint x="120" y="120" as="sourcePoint" />
            <mxPoint x="350" y="70" as="targetPoint" />
          </mxGeometry>
        </mxCell>
      </root>
    </mxGraphModel>
  </diagram>
</mxfile>
